# xmcd
#
# Track frame offsets:
#	150
#	10593
#	25925
#	38638
#	52871
#	74641
#	89660
#	108744
#	127721
#	139334
#	154235
#	180349
#	196366
#	214669
#	230585
#	253728
#	267468
#
# Disc length: 3803 seconds
# Revision: 0
# Processed by: cddbd v1.5.2PL0 Copyright (c) Steve Scherf et al.
# Submitted via: dBpowerAMP V12.0
#
DISCID=ef0ed911
DTITLE=Alan Tyler - So Far - Old Favourites and Country Covers
DYEAR=2007
DGENRE=Country
TTITLE0=If I Needed You
TTITLE1=Luckenbach Texas
TTITLE2=Honky Tonkin
TTITLE3=A Thing Called Love
TTITLE4=Standing at the Doorstep of Love
TTITLE5=In The Pines
TTITLE6=Gradually Learning
TTITLE7=Everybody Lives With Us
TTITLE8=I'm So Lonesome I Could Cry
TTITLE9=Sweet Dream Woman
TTITLE10=The Blue Man
TTITLE11=Scarborough Fair
TTITLE12=Roll On Forever
TTITLE13=Two Girls
TTITLE14=There's a Place in My Heart I Call Texas/What You'll Do When I'm Gone
TTITLE15=Drifting
TTITLE16=In Tall Buildings
EXTD=
EXTT0=
EXTT1=
EXTT2=
EXTT3=
EXTT4=
EXTT5=
EXTT6=
EXTT7=
EXTT8=
EXTT9=
EXTT10=
EXTT11=
EXTT12=
EXTT13=
EXTT14=
EXTT15=
EXTT16=
PLAYORDER=
